<svg xmlns="http://www.w3.org/2000/svg" viewBox="0 0 1100 700" font-family="-apple-system, BlinkMacSystemFont, Segoe UI, Roboto, sans-serif">
  <!-- Background -->
  <rect width="1100" height="700" fill="#1a1a2e"/>

  <!-- Sidebar -->
  <rect x="0" y="0" width="220" height="700" fill="#0f3460"/>
  <text x="20" y="38" fill="#e94560" font-size="16" font-weight="bold">D2R Tracker</text>
  <line x1="0" y1="60" x2="220" y2="60" stroke="#2a2a4a" stroke-width="1"/>

  <!-- Nav Items -->
  <text x="20" y="85" fill="#eaeaea" font-size="13" opacity="0.6">◎ Profiles</text>
  <text x="20" y="115" fill="#eaeaea" font-size="13" opacity="0.6">▶ Run Tracker</text>
  <text x="20" y="145" fill="#eaeaea" font-size="13" opacity="0.6">↗ Routes</text>
  <text x="20" y="175" fill="#eaeaea" font-size="13" opacity="0.6">☰ History</text>
  <text x="20" y="205" fill="#eaeaea" font-size="13" opacity="0.6">◈ Statistics</text>
  <text x="20" y="235" fill="#eaeaea" font-size="13" opacity="0.6">⇄ Compare</text>
  <text x="20" y="265" fill="#eaeaea" font-size="13" opacity="0.6">◆ Heralds</text>
  <text x="20" y="295" fill="#eaeaea" font-size="13" opacity="0.6">▣ Ancients</text>
  <text x="20" y="325" fill="#eaeaea" font-size="13" opacity="0.6">※ DClone</text>
  <text x="20" y="355" fill="#eaeaea" font-size="13" opacity="0.6">△ XP</text>
  <text x="20" y="385" fill="#eaeaea" font-size="13" opacity="0.6">∿ Drops</text>
  <text x="20" y="415" fill="#eaeaea" font-size="13" opacity="0.6">⇌ Co-op</text>
  <rect x="0" y="428" width="220" height="30" fill="rgba(233,69,96,0.2)"/>
  <rect x="0" y="428" width="3" height="30" fill="#e94560"/>
  <text x="20" y="448" fill="#eaeaea" font-size="13">★ Achievements</text>
  <text x="20" y="478" fill="#eaeaea" font-size="13" opacity="0.6">◇ Runes</text>
  <text x="20" y="508" fill="#eaeaea" font-size="13" opacity="0.6">✦ Advisor</text>

  <!-- Separator -->
  <line x1="10" y1="528" x2="210" y2="528" stroke="#2a2a4a" stroke-width="1"/>
  <text x="20" y="553" fill="#eaeaea" font-size="13" opacity="0.6">⚙ Settings</text>
  <text x="20" y="583" fill="#eaeaea" font-size="13" opacity="0.6">◳ Overlay</text>
  <text x="20" y="613" fill="#eaeaea" font-size="13" opacity="0.6">● Theme</text>
  <text x="20" y="643" fill="#eaeaea" font-size="13" opacity="0.6">↓ Export</text>
  <text x="20" y="673" fill="#eaeaea" font-size="13" opacity="0.6">↑ Import</text>

  <!-- Main content header -->
  <text x="250" y="50" fill="#eaeaea" font-size="22" font-weight="bold">🏆 Achievements</text>
  <rect x="530" y="30" width="130" height="26" rx="13" fill="rgba(78,205,196,0.15)" stroke="rgba(78,205,196,0.4)"/>
  <text x="545" y="48" fill="#4ecdc4" font-size="11">MFSorc — 8/24</text>

  <!-- Lifetime Stats Section -->
  <text x="250" y="85" fill="#a0a0a0" font-size="13" font-weight="500">Lifetime Statistics</text>

  <!-- Stat Cards -->
  <rect x="250" y="95" width="160" height="70" rx="8" fill="#16213e" stroke="#2a2a4a"/>
  <text x="300" y="130" fill="#4ecdc4" font-size="22" font-weight="bold" text-anchor="middle">127.4h</text>
  <text x="300" y="150" fill="#a0a0a0" font-size="10" text-anchor="middle">Total Hours</text>

  <rect x="420" y="95" width="160" height="70" rx="8" fill="#16213e" stroke="#2a2a4a"/>
  <text x="470" y="130" fill="#4ecdc4" font-size="22" font-weight="bold" text-anchor="middle">4,231</text>
  <text x="470" y="150" fill="#a0a0a0" font-size="10" text-anchor="middle">Total Runs</text>

  <rect x="590" y="95" width="160" height="70" rx="8" fill="#16213e" stroke="#2a2a4a"/>
  <text x="640" y="130" fill="#4ecdc4" font-size="22" font-weight="bold" text-anchor="middle">892</text>
  <text x="640" y="150" fill="#a0a0a0" font-size="10" text-anchor="middle">Total Items</text>

  <!-- Breakdowns -->
  <rect x="770" y="95" width="300" height="70" rx="8" fill="#16213e" stroke="#2a2a4a"/>
  <text x="785" y="115" fill="#a0a0a0" font-size="10">Runs by Class</text>
  <text x="785" y="133" fill="#eaeaea" font-size="10">Sorceress: 2,840</text>
  <text x="785" y="149" fill="#eaeaea" font-size="10">Paladin: 1,120</text>
  <text x="785" y="165" fill="#eaeaea" font-size="10" opacity="0.5">Necromancer: 271</text>
  <text x="920" y="133" fill="#eaeaea" font-size="10">Unique: 312</text>
  <text x="920" y="149" fill="#eaeaea" font-size="10">Set: 198</text>
  <text x="920" y="165" fill="#eaeaea" font-size="10" opacity="0.5">Rare: 382</text>
  <text x="920" y="115" fill="#a0a0a0" font-size="10">Items by Rarity</text>

  <!-- Category Filter Tabs -->
  <text x="250" y="200" fill="#a0a0a0" font-size="13" font-weight="500">Achievement Gallery</text>
  <rect x="250" y="210" width="50" height="26" rx="4" fill="#e94560"/>
  <text x="262" y="227" fill="white" font-size="10">All</text>
  <rect x="305" y="210" width="80" height="26" rx="4" fill="none" stroke="#2a2a4a"/>
  <text x="319" y="227" fill="#eaeaea" font-size="10">Milestone</text>
  <rect x="390" y="210" width="60" height="26" rx="4" fill="none" stroke="#2a2a4a"/>
  <text x="403" y="227" fill="#eaeaea" font-size="10">Streak</text>
  <rect x="455" y="210" width="75" height="26" rx="4" fill="none" stroke="#2a2a4a"/>
  <text x="467" y="227" fill="#eaeaea" font-size="10">Per-Class</text>
  <rect x="535" y="210" width="72" height="26" rx="4" fill="none" stroke="#2a2a4a"/>
  <text x="548" y="227" fill="#eaeaea" font-size="10">Per-Area</text>

  <!-- Achievement Cards Row 1 -->
  <!-- Card 1: Unlocked -->
  <rect x="250" y="250" width="260" height="100" rx="8" fill="rgba(78,205,196,0.08)" stroke="rgba(78,205,196,0.4)"/>
  <text x="275" y="280" fill="#eaeaea" font-size="24">🏃</text>
  <text x="310" y="278" fill="#eaeaea" font-size="12" font-weight="500">Marathon Runner</text>
  <text x="310" y="296" fill="#a0a0a0" font-size="10">Complete 1,000 runs</text>
  <text x="310" y="320" fill="#4ecdc4" font-size="10">✓ Unlocked: 12/15/2024</text>

  <!-- Card 2: Unlocked -->
  <rect x="520" y="250" width="260" height="100" rx="8" fill="rgba(78,205,196,0.08)" stroke="rgba(78,205,196,0.4)"/>
  <text x="545" y="280" fill="#eaeaea" font-size="24">💎</text>
  <text x="580" y="278" fill="#eaeaea" font-size="12" font-weight="500">Treasure Hunter</text>
  <text x="580" y="296" fill="#a0a0a0" font-size="10">Find 500 items</text>
  <text x="580" y="320" fill="#4ecdc4" font-size="10">✓ Unlocked: 1/3/2025</text>

  <!-- Card 3: Unlocked -->
  <rect x="790" y="250" width="260" height="100" rx="8" fill="rgba(78,205,196,0.08)" stroke="rgba(78,205,196,0.4)"/>
  <text x="815" y="280" fill="#eaeaea" font-size="24">🔥</text>
  <text x="850" y="278" fill="#eaeaea" font-size="12" font-weight="500">Week Warrior</text>
  <text x="850" y="296" fill="#a0a0a0" font-size="10">Farm 7 consecutive days</text>
  <text x="850" y="320" fill="#4ecdc4" font-size="10">✓ Unlocked: 11/28/2024</text>

  <!-- Achievement Cards Row 2 -->
  <!-- Card 4: In Progress -->
  <rect x="250" y="360" width="260" height="100" rx="8" fill="#16213e" stroke="#2a2a4a"/>
  <text x="275" y="390" fill="#eaeaea" font-size="24" opacity="0.5">⭐</text>
  <text x="310" y="388" fill="#eaeaea" font-size="12" font-weight="500" opacity="0.7">Legend</text>
  <text x="310" y="406" fill="#a0a0a0" font-size="10">Complete 10,000 runs</text>
  <!-- Progress bar -->
  <rect x="310" y="420" width="180" height="8" rx="4" fill="#0f3460"/>
  <rect x="310" y="420" width="76" height="8" rx="4" fill="#e94560"/>
  <text x="310" y="442" fill="#a0a0a0" font-size="9">4,231 / 10,000</text>

  <!-- Card 5: In Progress -->
  <rect x="520" y="360" width="260" height="100" rx="8" fill="#16213e" stroke="#2a2a4a"/>
  <text x="545" y="390" fill="#eaeaea" font-size="24" opacity="0.5">🗡️</text>
  <text x="580" y="388" fill="#eaeaea" font-size="12" font-weight="500" opacity="0.7">Mephisto Slayer</text>
  <text x="580" y="406" fill="#a0a0a0" font-size="10">500 runs in Durance of Hate</text>
  <!-- Progress bar -->
  <rect x="580" y="420" width="180" height="8" rx="4" fill="#0f3460"/>
  <rect x="580" y="420" width="129" height="8" rx="4" fill="#e94560"/>
  <text x="580" y="442" fill="#a0a0a0" font-size="9">358 / 500</text>

  <!-- Card 6: In Progress -->
  <rect x="790" y="360" width="260" height="100" rx="8" fill="#16213e" stroke="#2a2a4a"/>
  <text x="815" y="390" fill="#eaeaea" font-size="24" opacity="0.5">📅</text>
  <text x="850" y="388" fill="#eaeaea" font-size="12" font-weight="500" opacity="0.7">Monthly Streak</text>
  <text x="850" y="406" fill="#a0a0a0" font-size="10">Farm 30 consecutive days</text>
  <!-- Progress bar -->
  <rect x="850" y="420" width="180" height="8" rx="4" fill="#0f3460"/>
  <rect x="850" y="420" width="84" height="8" rx="4" fill="#e94560"/>
  <text x="850" y="442" fill="#a0a0a0" font-size="9">14 / 30</text>

  <!-- Achievement Cards Row 3 -->
  <!-- Card 7: In Progress -->
  <rect x="250" y="470" width="260" height="100" rx="8" fill="#16213e" stroke="#2a2a4a"/>
  <text x="275" y="500" fill="#eaeaea" font-size="24" opacity="0.5">🧙</text>
  <text x="310" y="498" fill="#eaeaea" font-size="12" font-weight="500" opacity="0.7">Sorceress Master</text>
  <text x="310" y="516" fill="#a0a0a0" font-size="10">2,000 runs as Sorceress</text>
  <!-- Progress bar -->
  <rect x="310" y="530" width="180" height="8" rx="4" fill="#0f3460"/>
  <rect x="310" y="530" width="180" height="8" rx="4" fill="#4ecdc4"/>
  <text x="310" y="552" fill="#4ecdc4" font-size="9">✓ 2,840 / 2,000</text>

  <!-- Card 8: Locked -->
  <rect x="520" y="470" width="260" height="100" rx="8" fill="#16213e" stroke="#2a2a4a"/>
  <text x="545" y="500" fill="#eaeaea" font-size="24" opacity="0.5">💀</text>
  <text x="580" y="498" fill="#eaeaea" font-size="12" font-weight="500" opacity="0.7">GG Collector</text>
  <text x="580" y="516" fill="#a0a0a0" font-size="10">Find 50 GG-tier items</text>
  <!-- Progress bar -->
  <rect x="580" y="530" width="180" height="8" rx="4" fill="#0f3460"/>
  <rect x="580" y="530" width="43" height="8" rx="4" fill="#e94560"/>
  <text x="580" y="552" fill="#a0a0a0" font-size="9">12 / 50</text>

  <!-- Card 9: Locked -->
  <rect x="790" y="470" width="260" height="100" rx="8" fill="#16213e" stroke="#2a2a4a"/>
  <text x="815" y="500" fill="#eaeaea" font-size="24" opacity="0.5">⚔️</text>
  <text x="850" y="498" fill="#eaeaea" font-size="12" font-weight="500" opacity="0.7">All Classes</text>
  <text x="850" y="516" fill="#a0a0a0" font-size="10">100 runs with each class</text>
  <!-- Progress bar -->
  <rect x="850" y="530" width="180" height="8" rx="4" fill="#0f3460"/>
  <rect x="850" y="530" width="63" height="8" rx="4" fill="#e94560"/>
  <text x="850" y="552" fill="#a0a0a0" font-size="9">5 / 8 classes</text>

  <!-- Achievement Cards Row 4 -->
  <rect x="250" y="580" width="260" height="100" rx="8" fill="rgba(78,205,196,0.08)" stroke="rgba(78,205,196,0.4)"/>
  <text x="275" y="610" fill="#eaeaea" font-size="24">🎯</text>
  <text x="310" y="608" fill="#eaeaea" font-size="12" font-weight="500">First Blood</text>
  <text x="310" y="626" fill="#a0a0a0" font-size="10">Complete your first run</text>
  <text x="310" y="650" fill="#4ecdc4" font-size="10">✓ Unlocked: 9/1/2024</text>

  <rect x="520" y="580" width="260" height="100" rx="8" fill="rgba(78,205,196,0.08)" stroke="rgba(78,205,196,0.4)"/>
  <text x="545" y="610" fill="#eaeaea" font-size="24">⏱️</text>
  <text x="580" y="608" fill="#eaeaea" font-size="12" font-weight="500">Speed Demon</text>
  <text x="580" y="626" fill="#a0a0a0" font-size="10">Complete a run in under 30s</text>
  <text x="580" y="650" fill="#4ecdc4" font-size="10">✓ Unlocked: 10/5/2024</text>

  <rect x="790" y="580" width="260" height="100" rx="8" fill="#16213e" stroke="#2a2a4a"/>
  <text x="815" y="610" fill="#eaeaea" font-size="24" opacity="0.5">🌟</text>
  <text x="850" y="608" fill="#eaeaea" font-size="12" font-weight="500" opacity="0.7">100 Hours</text>
  <text x="850" y="626" fill="#a0a0a0" font-size="10">Farm for 100 total hours</text>
  <rect x="850" y="640" width="180" height="8" rx="4" fill="#0f3460"/>
  <rect x="850" y="640" width="180" height="8" rx="4" fill="#4ecdc4"/>
  <text x="850" y="662" fill="#4ecdc4" font-size="9">✓ 127.4 / 100</text>

  <!-- Active profile footer -->
  <rect x="0" y="680" width="220" height="20" fill="rgba(0,0,0,0.3)"/>
  <text x="20" y="694" fill="#a0a0a0" font-size="9">▸ MFSorc · Sorceress</text>
</svg>
