<svg xmlns="http://www.w3.org/2000/svg" viewBox="0 0 1100 700" font-family="-apple-system, BlinkMacSystemFont, Segoe UI, Roboto, sans-serif">
  <!-- Background -->
  <rect width="1100" height="700" fill="#1a1a2e"/>

  <!-- Sidebar -->
  <rect x="0" y="0" width="220" height="700" fill="#0f3460"/>
  <text x="20" y="38" fill="#e94560" font-size="16" font-weight="bold">D2R Tracker</text>
  <line x1="0" y1="60" x2="220" y2="60" stroke="#2a2a4a" stroke-width="1"/>

  <!-- Nav Items -->
  <text x="20" y="85" fill="#eaeaea" font-size="13" opacity="0.6">◎ Profiles</text>
  <text x="20" y="115" fill="#eaeaea" font-size="13" opacity="0.6">▶ Run Tracker</text>
  <text x="20" y="145" fill="#eaeaea" font-size="13" opacity="0.6">↗ Routes</text>
  <text x="20" y="175" fill="#eaeaea" font-size="13" opacity="0.6">☰ History</text>
  <text x="20" y="205" fill="#eaeaea" font-size="13" opacity="0.6">◈ Statistics</text>
  <text x="20" y="235" fill="#eaeaea" font-size="13" opacity="0.6">⇄ Compare</text>
  <text x="20" y="265" fill="#eaeaea" font-size="13" opacity="0.6">◆ Heralds</text>
  <text x="20" y="295" fill="#eaeaea" font-size="13" opacity="0.6">▣ Ancients</text>
  <rect x="0" y="310" width="220" height="30" fill="rgba(233,69,96,0.2)"/>
  <rect x="0" y="310" width="3" height="30" fill="#e94560"/>
  <text x="20" y="325" fill="#eaeaea" font-size="13">※ DClone</text>
  <text x="20" y="355" fill="#eaeaea" font-size="13" opacity="0.6">△ XP</text>
  <text x="20" y="385" fill="#eaeaea" font-size="13" opacity="0.6">∿ Drops</text>
  <text x="20" y="415" fill="#eaeaea" font-size="13" opacity="0.6">⇌ Co-op</text>

  <!-- Separator -->
  <line x1="10" y1="440" x2="210" y2="440" stroke="#2a2a4a" stroke-width="1"/>

  <!-- Bottom Nav -->
  <text x="20" y="465" fill="#eaeaea" font-size="13" opacity="0.6">⚙ Settings</text>
  <text x="20" y="495" fill="#eaeaea" font-size="13" opacity="0.6">◳ Overlay</text>
  <text x="20" y="525" fill="#eaeaea" font-size="13" opacity="0.6">● Theme</text>
  <text x="20" y="555" fill="#eaeaea" font-size="13" opacity="0.6">↓ Export</text>
  <text x="20" y="585" fill="#eaeaea" font-size="13" opacity="0.6">↑ Import</text>

  <!-- Main content -->
  <text x="250" y="50" fill="#eaeaea" font-size="22" font-weight="bold">DClone Tracker</text>
  <rect x="480" y="28" width="160" height="28" rx="4" fill="#0f3460" stroke="#2a2a4a"/>
  <text x="495" y="47" fill="#eaeaea" font-size="12">MFSorc - Sorceress</text>

  <!-- Region Progress -->
  <text x="250" y="90" fill="#eaeaea" font-size="15" font-weight="bold">Region Progress</text>
  <text x="250" y="110" fill="#a0a0a0" font-size="11">Track Diablo Clone progress per region. Update manually from community reports.</text>

  <!-- Americas: 3/6 -->
  <rect x="250" y="125" width="815" height="80" rx="8" fill="#16213e" stroke="#2a2a4a"/>
  <text x="270" y="152" fill="#eaeaea" font-size="14" font-weight="bold">Americas</text>
  <text x="920" y="152" fill="#ffd700" font-size="12">3/6 — Agitated</text>
  <rect x="270" y="162" width="775" height="12" rx="6" fill="#1a1a2e"/>
  <rect x="270" y="162" width="310" height="12" rx="6" fill="#ffd700"/>
  <rect x="270" y="180" width="30" height="20" rx="3" fill="none" stroke="#2a2a4a"/>
  <text x="280" y="194" fill="#a0a0a0" font-size="10">1</text>
  <rect x="305" y="180" width="30" height="20" rx="3" fill="none" stroke="#2a2a4a"/>
  <text x="315" y="194" fill="#a0a0a0" font-size="10">2</text>
  <rect x="340" y="180" width="30" height="20" rx="3" fill="#e94560"/>
  <text x="350" y="194" fill="white" font-size="10">3</text>
  <rect x="375" y="180" width="30" height="20" rx="3" fill="none" stroke="#2a2a4a"/>
  <text x="385" y="194" fill="#a0a0a0" font-size="10">4</text>
  <rect x="410" y="180" width="30" height="20" rx="3" fill="none" stroke="#2a2a4a"/>
  <text x="420" y="194" fill="#a0a0a0" font-size="10">5</text>
  <rect x="445" y="180" width="30" height="20" rx="3" fill="none" stroke="#2a2a4a"/>
  <text x="455" y="194" fill="#a0a0a0" font-size="10">6</text>

  <!-- Europe: 5/6 -->
  <rect x="250" y="215" width="815" height="80" rx="8" fill="#16213e" stroke="#2a2a4a"/>
  <text x="270" y="242" fill="#eaeaea" font-size="14" font-weight="bold">Europe</text>
  <text x="920" y="242" fill="#e94560" font-size="12">5/6 — Terrorizing</text>
  <rect x="270" y="252" width="775" height="12" rx="6" fill="#1a1a2e"/>
  <rect x="270" y="252" width="620" height="12" rx="6" fill="#e94560"/>
  <rect x="270" y="270" width="30" height="20" rx="3" fill="none" stroke="#2a2a4a"/>
  <text x="280" y="284" fill="#a0a0a0" font-size="10">1</text>
  <rect x="305" y="270" width="30" height="20" rx="3" fill="none" stroke="#2a2a4a"/>
  <text x="315" y="284" fill="#a0a0a0" font-size="10">2</text>
  <rect x="340" y="270" width="30" height="20" rx="3" fill="none" stroke="#2a2a4a"/>
  <text x="350" y="284" fill="#a0a0a0" font-size="10">3</text>
  <rect x="375" y="270" width="30" height="20" rx="3" fill="none" stroke="#2a2a4a"/>
  <text x="385" y="284" fill="#a0a0a0" font-size="10">4</text>
  <rect x="410" y="270" width="30" height="20" rx="3" fill="#e94560"/>
  <text x="420" y="284" fill="white" font-size="10">5</text>
  <rect x="445" y="270" width="30" height="20" rx="3" fill="none" stroke="#2a2a4a"/>
  <text x="455" y="284" fill="#a0a0a0" font-size="10">6</text>

  <!-- Asia: 1/6 -->
  <rect x="250" y="305" width="815" height="80" rx="8" fill="#16213e" stroke="#2a2a4a"/>
  <text x="270" y="332" fill="#eaeaea" font-size="14" font-weight="bold">Asia</text>
  <text x="920" y="332" fill="#4ecdc4" font-size="12">1/6 — Calm</text>
  <rect x="270" y="342" width="775" height="12" rx="6" fill="#1a1a2e"/>
  <rect x="270" y="360" width="30" height="20" rx="3" fill="#e94560"/>
  <text x="280" y="374" fill="white" font-size="10">1</text>
  <rect x="305" y="360" width="30" height="20" rx="3" fill="none" stroke="#2a2a4a"/>
  <text x="315" y="374" fill="#a0a0a0" font-size="10">2</text>
  <rect x="340" y="360" width="30" height="20" rx="3" fill="none" stroke="#2a2a4a"/>
  <text x="350" y="374" fill="#a0a0a0" font-size="10">3</text>
  <rect x="375" y="360" width="30" height="20" rx="3" fill="none" stroke="#2a2a4a"/>
  <text x="385" y="374" fill="#a0a0a0" font-size="10">4</text>
  <rect x="410" y="360" width="30" height="20" rx="3" fill="none" stroke="#2a2a4a"/>
  <text x="420" y="374" fill="#a0a0a0" font-size="10">5</text>
  <rect x="445" y="360" width="30" height="20" rx="3" fill="none" stroke="#2a2a4a"/>
  <text x="455" y="374" fill="#a0a0a0" font-size="10">6</text>

  <!-- Notification Settings -->
  <rect x="250" y="400" width="815" height="80" rx="8" fill="#16213e" stroke="#2a2a4a"/>
  <text x="270" y="427" fill="#eaeaea" font-size="15" font-weight="bold">Notification Settings</text>
  <text x="270" y="455" fill="#a0a0a0" font-size="11">Preferred Region</text>
  <rect x="270" y="460" width="150" height="28" rx="4" fill="#1a1a2e" stroke="#2a2a4a"/>
  <text x="280" y="479" fill="#eaeaea" font-size="12">Americas</text>
  <text x="440" y="455" fill="#a0a0a0" font-size="11">Notify at Progress</text>
  <rect x="440" y="460" width="180" height="28" rx="4" fill="#1a1a2e" stroke="#2a2a4a"/>
  <text x="450" y="479" fill="#eaeaea" font-size="12">5 — Terrorizing</text>

  <!-- Anni Log -->
  <rect x="250" y="495" width="815" height="190" rx="8" fill="#16213e" stroke="#2a2a4a"/>
  <text x="270" y="525" fill="#eaeaea" font-size="15" font-weight="bold">Annihilus Log</text>

  <text x="270" y="550" fill="#a0a0a0" font-size="11">Attributes</text>
  <rect x="270" y="555" width="350" height="28" rx="4" fill="#1a1a2e" stroke="#2a2a4a"/>
  <text x="280" y="574" fill="#666" font-size="11">+1 Skills / +10-20 Attr / +10-20 Res / 5-10% XP</text>
  <text x="635" y="550" fill="#a0a0a0" font-size="11">Notes</text>
  <rect x="635" y="555" width="250" height="28" rx="4" fill="#1a1a2e" stroke="#2a2a4a"/>
  <text x="645" y="574" fill="#666" font-size="11">Optional notes...</text>
  <rect x="900" y="555" width="130" height="28" rx="4" fill="#e94560"/>
  <text x="925" y="574" fill="white" font-size="12">Log Anni</text>

  <text x="270" y="610" fill="#a0a0a0" font-size="11">Date</text>
  <text x="400" y="610" fill="#a0a0a0" font-size="11">Stats</text>
  <text x="750" y="610" fill="#a0a0a0" font-size="11">Notes</text>
  <line x1="270" y1="618" x2="1040" y2="618" stroke="#2a2a4a" stroke-width="1"/>
  <text x="270" y="640" fill="#eaeaea" font-size="11">12/10/2024</text>
  <text x="400" y="640" fill="#eaeaea" font-size="11">+1 Skills / +18 Attr / +15 Res / 8% XP</text>
  <text x="750" y="640" fill="#a0a0a0" font-size="11">Decent roll</text>
  <text x="270" y="665" fill="#eaeaea" font-size="11">11/28/2024</text>
  <text x="400" y="665" fill="#eaeaea" font-size="11">+1 Skills / +20 Attr / +19 Res / 10% XP</text>
  <text x="750" y="665" fill="#4ecdc4" font-size="11">Near perfect!</text>
</svg>
