<svg xmlns="http://www.w3.org/2000/svg" viewBox="0 0 1100 760" font-family="-apple-system, BlinkMacSystemFont, Segoe UI, Roboto, sans-serif">
  <!-- Background -->
  <rect width="1100" height="760" fill="#1a1a2e"/>
  <!-- Sidebar -->
  <rect x="0" y="0" width="220" height="760" fill="#0f3460"/>
  <text x="20" y="38" fill="#e94560" font-size="16" font-weight="bold">D2R Tracker</text>
  <line x1="0" y1="60" x2="220" y2="60" stroke="#2a2a4a" stroke-width="1"/>
  <text x="20" y="85" fill="#eaeaea" font-size="13" opacity="0.6">◎ Profiles</text>
  <text x="20" y="115" fill="#eaeaea" font-size="13" opacity="0.6">▶ Run Tracker</text>
  <text x="20" y="145" fill="#eaeaea" font-size="13" opacity="0.6">☰ History</text>
  <text x="20" y="175" fill="#eaeaea" font-size="13" opacity="0.6">◈ Statistics</text>
  <text x="20" y="205" fill="#eaeaea" font-size="13" opacity="0.6">⊞ Leaderboards</text>
  <text x="20" y="235" fill="#eaeaea" font-size="13" opacity="0.6">∇ Terror Zone</text>
  <rect x="0" y="250" width="220" height="30" fill="rgba(233,69,96,0.2)"/>
  <rect x="0" y="250" width="3" height="30" fill="#e94560"/>
  <text x="20" y="270" fill="#eaeaea" font-size="13">※ DClone</text>
  <text x="20" y="300" fill="#eaeaea" font-size="13" opacity="0.6">△ XP</text>
  <line x1="10" y1="320" x2="210" y2="320" stroke="#2a2a4a" stroke-width="1"/>
  <text x="20" y="345" fill="#eaeaea" font-size="13" opacity="0.6">⚙ Settings</text>

  <!-- Main content -->
  <text x="250" y="50" fill="#eaeaea" font-size="22" font-weight="bold">😈 DClone Tracker</text>
  <rect x="800" y="28" width="175" height="28" rx="4" fill="#0f3460" stroke="#2a2a4a"/>
  <text x="815" y="47" fill="#eaeaea" font-size="12">MFSorc - Sorceress</text>

  <!-- Auto-fetch banner -->
  <rect x="250" y="65" width="815" height="26" rx="4" fill="rgba(78,205,196,0.1)" stroke="rgba(78,205,196,0.3)"/>
  <text x="265" y="82" fill="#4ecdc4" font-size="11">● Auto-fetching from diablo2.io every 5 minutes. Last poll: 2 min ago.</text>

  <!-- Region Progress Header -->
  <text x="250" y="115" fill="#eaeaea" font-size="15" font-weight="bold">Region Progress</text>

  <!-- Americas Card -->
  <rect x="250" y="125" width="815" height="160" rx="8" fill="#16213e" stroke="#2a2a4a"/>
  <text x="270" y="148" fill="#eaeaea" font-size="14" font-weight="bold">Americas</text>
  <!-- Non-Ladder row -->
  <text x="270" y="172" fill="#a0a0a0" font-size="11">Non-Ladder</text>
  <text x="880" y="172" fill="#ffd700" font-size="11">3/6 — Agitated</text>
  <rect x="270" y="178" width="595" height="8" rx="4" fill="#1a1a2e"/>
  <rect x="270" y="178" width="238" height="8" rx="4" fill="#ffd700"/>
  <rect x="270" y="192" width="24" height="18" rx="3" fill="none" stroke="#2a2a4a"/><text x="278" y="205" fill="#a0a0a0" font-size="9">1</text>
  <rect x="298" y="192" width="24" height="18" rx="3" fill="none" stroke="#2a2a4a"/><text x="306" y="205" fill="#a0a0a0" font-size="9">2</text>
  <rect x="326" y="192" width="24" height="18" rx="3" fill="#e94560"/><text x="334" y="205" fill="white" font-size="9">3</text>
  <rect x="354" y="192" width="24" height="18" rx="3" fill="none" stroke="#2a2a4a"/><text x="362" y="205" fill="#a0a0a0" font-size="9">4</text>
  <rect x="382" y="192" width="24" height="18" rx="3" fill="none" stroke="#2a2a4a"/><text x="390" y="205" fill="#a0a0a0" font-size="9">5</text>
  <rect x="410" y="192" width="24" height="18" rx="3" fill="none" stroke="#2a2a4a"/><text x="418" y="205" fill="#a0a0a0" font-size="9">6</text>
  <!-- Ladder row -->
  <text x="270" y="228" fill="#a0a0a0" font-size="11">Ladder</text>
  <text x="880" y="228" fill="#4ecdc4" font-size="11">1/6 — Calm</text>
  <rect x="270" y="234" width="595" height="8" rx="4" fill="#1a1a2e"/>
  <rect x="270" y="248" width="24" height="18" rx="3" fill="#e94560"/><text x="278" y="261" fill="white" font-size="9">1</text>
  <rect x="298" y="248" width="24" height="18" rx="3" fill="none" stroke="#2a2a4a"/><text x="306" y="261" fill="#a0a0a0" font-size="9">2</text>
  <rect x="326" y="248" width="24" height="18" rx="3" fill="none" stroke="#2a2a4a"/><text x="334" y="261" fill="#a0a0a0" font-size="9">3</text>
  <rect x="354" y="248" width="24" height="18" rx="3" fill="none" stroke="#2a2a4a"/><text x="362" y="261" fill="#a0a0a0" font-size="9">4</text>
  <rect x="382" y="248" width="24" height="18" rx="3" fill="none" stroke="#2a2a4a"/><text x="390" y="261" fill="#a0a0a0" font-size="9">5</text>
  <rect x="410" y="248" width="24" height="18" rx="3" fill="none" stroke="#2a2a4a"/><text x="418" y="261" fill="#a0a0a0" font-size="9">6</text>

  <!-- Europe Card -->
  <rect x="250" y="295" width="815" height="120" rx="8" fill="#16213e" stroke="#2a2a4a"/>
  <text x="270" y="318" fill="#eaeaea" font-size="14" font-weight="bold">Europe</text>
  <text x="270" y="340" fill="#a0a0a0" font-size="11">Non-Ladder</text>
  <text x="880" y="340" fill="#e94560" font-size="11">5/6 — Terrorizing</text>
  <rect x="270" y="346" width="595" height="8" rx="4" fill="#1a1a2e"/>
  <rect x="270" y="346" width="476" height="8" rx="4" fill="#e94560"/>
  <rect x="270" y="360" width="24" height="18" rx="3" fill="none" stroke="#2a2a4a"/><text x="278" y="373" fill="#a0a0a0" font-size="9">1</text>
  <rect x="298" y="360" width="24" height="18" rx="3" fill="none" stroke="#2a2a4a"/><text x="306" y="373" fill="#a0a0a0" font-size="9">2</text>
  <rect x="326" y="360" width="24" height="18" rx="3" fill="none" stroke="#2a2a4a"/><text x="334" y="373" fill="#a0a0a0" font-size="9">3</text>
  <rect x="354" y="360" width="24" height="18" rx="3" fill="none" stroke="#2a2a4a"/><text x="362" y="373" fill="#a0a0a0" font-size="9">4</text>
  <rect x="382" y="360" width="24" height="18" rx="3" fill="#e94560"/><text x="390" y="373" fill="white" font-size="9">5</text>
  <rect x="410" y="360" width="24" height="18" rx="3" fill="none" stroke="#2a2a4a"/><text x="418" y="373" fill="#a0a0a0" font-size="9">6</text>
  <!-- Manual override badge -->
  <rect x="450" y="358" width="55" height="18" rx="3" fill="#444"/>
  <text x="461" y="371" fill="#aaa" font-size="10">Manual</text>
  <rect x="514" y="358" width="90" height="18" rx="3" fill="none" stroke="#888"/>
  <text x="522" y="371" fill="#aaa" font-size="10">Clear override</text>

  <!-- Settings Section -->
  <rect x="250" y="430" width="815" height="90" rx="8" fill="#16213e" stroke="#2a2a4a"/>
  <text x="270" y="458" fill="#eaeaea" font-size="15" font-weight="bold">Settings</text>
  <text x="270" y="482" fill="#a0a0a0" font-size="11">Auto-Fetch</text>
  <rect x="340" y="467" width="50" height="22" rx="11" fill="#4caf50"/>
  <circle cx="378" cy="478" r="9" fill="white"/>
  <text x="405" y="482" fill="#a0a0a0" font-size="11">Poll Interval</text>
  <rect x="490" y="467" width="60" height="22" rx="4" fill="#1a1a2e" stroke="#2a2a4a"/>
  <text x="503" y="482" fill="#eaeaea" font-size="11">5 min</text>
  <text x="565" y="482" fill="#a0a0a0" font-size="11">Region</text>
  <rect x="618" y="467" width="90" height="22" rx="4" fill="#1a1a2e" stroke="#2a2a4a"/>
  <text x="628" y="482" fill="#eaeaea" font-size="11">Americas</text>
  <text x="270" y="508" fill="#a0a0a0" font-size="10">Last API poll: 2 min ago — diablo2.io/dclone_api.php</text>

  <!-- Anni Log -->
  <rect x="250" y="535" width="815" height="170" rx="8" fill="#16213e" stroke="#2a2a4a"/>
  <text x="270" y="562" fill="#eaeaea" font-size="15" font-weight="bold">Annihilus Log</text>
  <text x="270" y="585" fill="#a0a0a0" font-size="11">Attributes</text>
  <rect x="270" y="590" width="350" height="26" rx="4" fill="#1a1a2e" stroke="#2a2a4a"/>
  <text x="280" y="607" fill="#666" font-size="11">+1 Skills / +10-20 Attr / +10-20 Res / 5-10% XP</text>
  <text x="640" y="585" fill="#a0a0a0" font-size="11">Notes</text>
  <rect x="640" y="590" width="250" height="26" rx="4" fill="#1a1a2e" stroke="#2a2a4a"/>
  <rect x="905" y="590" width="110" height="26" rx="4" fill="#e94560"/>
  <text x="928" y="607" fill="white" font-size="12">Log Anni</text>
  <text x="270" y="643" fill="#a0a0a0" font-size="10">Date</text>
  <text x="380" y="643" fill="#a0a0a0" font-size="10">Stats</text>
  <text x="740" y="643" fill="#a0a0a0" font-size="10">Notes</text>
  <line x1="270" y1="650" x2="1040" y2="650" stroke="#2a2a4a" stroke-width="1"/>
  <text x="270" y="670" fill="#eaeaea" font-size="11">07/26/2026</text>
  <text x="380" y="670" fill="#eaeaea" font-size="11">+1 Skills / +18 Attr / +15 Res / 8% XP</text>
  <text x="740" y="670" fill="#a0a0a0" font-size="11">Decent roll</text>
  <text x="270" y="693" fill="#eaeaea" font-size="11">07/20/2026</text>
  <text x="380" y="693" fill="#eaeaea" font-size="11">+1 Skills / +20 Attr / +19 Res / 10% XP</text>
  <text x="740" y="693" fill="#4ecdc4" font-size="11">Near perfect!</text>
</svg>
