<svg xmlns="http://www.w3.org/2000/svg" viewBox="0 0 1100 700" font-family="-apple-system, BlinkMacSystemFont, Segoe UI, Roboto, sans-serif">
  <!-- Background -->
  <rect width="1100" height="700" fill="#1a1a2e"/>
  
  <!-- Sidebar -->
  <rect x="0" y="0" width="220" height="700" fill="#0f3460"/>
  <text x="20" y="38" fill="#e94560" font-size="16" font-weight="bold">D2R Tracker</text>
  <line x1="0" y1="60" x2="220" y2="60" stroke="#2a2a4a" stroke-width="1"/>
  <text x="20" y="95" fill="#eaeaea" font-size="14">👤 Perfis</text>
  <text x="20" y="135" fill="#eaeaea" font-size="14">🎮 Run Tracker</text>
  <rect x="0" y="150" width="220" height="40" fill="rgba(233,69,96,0.2)"/>
  <rect x="0" y="150" width="3" height="40" fill="#e94560"/>
  <text x="20" y="175" fill="#eaeaea" font-size="14">📜 Histórico</text>
  <text x="20" y="215" fill="#eaeaea" font-size="14">📊 Estatísticas</text>
  
  <!-- Main content -->
  <text x="250" y="50" fill="#eaeaea" font-size="22" font-weight="bold">Histórico</text>
  <rect x="860" y="28" width="180" height="28" rx="4" fill="#0f3460" stroke="#2a2a4a"/>
  <text x="878" y="47" fill="#eaeaea" font-size="11">MFSorc - 147 runs</text>
  
  <!-- Run 1 (expanded, has items) -->
  <rect x="250" y="80" width="810" height="180" rx="8" fill="#16213e" stroke="#2a2a4a"/>
  <!-- Header -->
  <text x="270" y="108" fill="#eaeaea" font-size="14" font-weight="500">Mephisto <tspan fill="#e94560" font-weight="bold">#47</tspan></text>
  <text x="470" y="108" fill="#4ecdc4" font-family="monospace" font-size="13">00:01:52</text>
  <text x="600" y="108" fill="#a0a0a0" font-size="12">21/06/2026 14:32</text>
  <text x="950" y="108" fill="#a0a0a0" font-size="11">▼</text>
  
  <!-- Expanded details -->
  <line x1="270" y1="120" x2="1040" y2="120" stroke="#2a2a4a" stroke-width="1"/>
  <rect x="270" y="125" width="770" height="20" fill="none"/>
  <text x="280" y="140" fill="#a0a0a0" font-size="11">Área:</text>
  <text x="315" y="140" fill="#eaeaea" font-size="11">Mephisto ✎</text>
  
  <text x="280" y="165" fill="#eaeaea" font-size="12" font-weight="500">Itens (2)</text>
  
  <rect x="280" y="175" width="740" height="26" rx="4" fill="rgba(0,0,0,0.2)"/>
  <text x="290" y="193" fill="#c4a000" font-size="11" font-weight="500">War Traveler</text>
  <text x="550" y="193" fill="#a0a0a0" font-size="10">Armor</text>
  <text x="650" y="193" fill="#c4a000" font-size="10" font-weight="bold">Unique</text>
  
  <rect x="280" y="205" width="740" height="26" rx="4" fill="rgba(0,0,0,0.2)"/>
  <text x="290" y="223" fill="#6060ff" font-size="11" font-weight="500">Jewel -5/+5 Cold Facet (Die)</text>
  <text x="550" y="223" fill="#a0a0a0" font-size="10">Jewel</text>
  <text x="650" y="223" fill="#6060ff" font-size="10" font-weight="bold">Jewel</text>
  
  <!-- Run 2 (collapsed, no items) -->
  <rect x="250" y="275" width="810" height="45" rx="8" fill="#16213e" stroke="#2a2a4a"/>
  <text x="270" y="303" fill="#eaeaea" font-size="14" font-weight="500">Mephisto <tspan fill="#e94560" font-weight="bold">#46</tspan></text>
  <text x="470" y="303" fill="#4ecdc4" font-family="monospace" font-size="13">00:02:05</text>
  <text x="600" y="303" fill="#a0a0a0" font-size="12">21/06/2026 14:30</text>
  <text x="950" y="303" fill="#a0a0a0" font-size="11">▶</text>
  
  <!-- Run 3 (expanded, has items) -->
  <rect x="250" y="335" width="810" height="150" rx="8" fill="#16213e" stroke="#2a2a4a"/>
  <text x="270" y="363" fill="#eaeaea" font-size="14" font-weight="500">Ancient Tunnels <tspan fill="#e94560" font-weight="bold">#12</tspan></text>
  <text x="470" y="363" fill="#4ecdc4" font-family="monospace" font-size="13">00:03:41</text>
  <text x="600" y="363" fill="#a0a0a0" font-size="12">21/06/2026 14:25</text>
  <text x="950" y="363" fill="#a0a0a0" font-size="11">▼</text>
  
  <line x1="270" y1="375" x2="1040" y2="375" stroke="#2a2a4a" stroke-width="1"/>
  <text x="280" y="395" fill="#a0a0a0" font-size="11">Área:</text>
  <text x="315" y="395" fill="#eaeaea" font-size="11">Ancient Tunnels ✎</text>
  
  <text x="280" y="420" fill="#eaeaea" font-size="12" font-weight="500">Itens (1)</text>
  
  <rect x="280" y="430" width="740" height="26" rx="4" fill="rgba(0,0,0,0.2)"/>
  <text x="290" y="448" fill="#00c400" font-size="11" font-weight="500">Tal Rasha's Guardianship</text>
  <text x="550" y="448" fill="#a0a0a0" font-size="10">Set Item</text>
  <text x="650" y="448" fill="#00c400" font-size="10" font-weight="bold">Set</text>
  
  <!-- Run 4 (collapsed) -->
  <rect x="250" y="500" width="810" height="45" rx="8" fill="#16213e" stroke="#2a2a4a"/>
  <text x="270" y="528" fill="#eaeaea" font-size="14" font-weight="500">Chaos Sanctuary <tspan fill="#e94560" font-weight="bold">#8</tspan></text>
  <text x="470" y="528" fill="#4ecdc4" font-family="monospace" font-size="13">00:04:12</text>
  <text x="600" y="528" fill="#a0a0a0" font-size="12">21/06/2026 14:20</text>
  <text x="950" y="528" fill="#a0a0a0" font-size="11">▶</text>
  
  <!-- Run 5 (collapsed) -->
  <rect x="250" y="560" width="810" height="45" rx="8" fill="#16213e" stroke="#2a2a4a"/>
  <text x="270" y="588" fill="#eaeaea" font-size="14" font-weight="500">Mephisto <tspan fill="#e94560" font-weight="bold">#45</tspan></text>
  <text x="470" y="588" fill="#4ecdc4" font-family="monospace" font-size="13">00:01:58</text>
  <text x="600" y="588" fill="#a0a0a0" font-size="12">21/06/2026 14:15</text>
  <text x="950" y="588" fill="#a0a0a0" font-size="11">▶</text>
</svg>
