<svg xmlns="http://www.w3.org/2000/svg" viewBox="0 0 1100 700" font-family="-apple-system, BlinkMacSystemFont, Segoe UI, Roboto, sans-serif">
  <!-- Background -->
  <rect width="1100" height="700" fill="#1a1a2e"/>

  <!-- Sidebar -->
  <rect x="0" y="0" width="220" height="700" fill="#0f3460"/>
  <text x="20" y="38" fill="#e94560" font-size="16" font-weight="bold">D2R Tracker</text>
  <line x1="0" y1="60" x2="220" y2="60" stroke="#2a2a4a" stroke-width="1"/>

  <!-- Nav Items -->
  <rect x="0" y="70" width="220" height="30" fill="rgba(233,69,96,0.2)"/>
  <rect x="0" y="70" width="3" height="30" fill="#e94560"/>
  <text x="20" y="85" fill="#eaeaea" font-size="13">◎ Profiles</text>
  <text x="20" y="115" fill="#eaeaea" font-size="13" opacity="0.6">▶ Run Tracker</text>
  <text x="20" y="145" fill="#eaeaea" font-size="13" opacity="0.6">↗ Routes</text>
  <text x="20" y="175" fill="#eaeaea" font-size="13" opacity="0.6">☰ History</text>
  <text x="20" y="205" fill="#eaeaea" font-size="13" opacity="0.6">◈ Statistics</text>
  <text x="20" y="235" fill="#eaeaea" font-size="13" opacity="0.6">⇄ Compare</text>
  <text x="20" y="265" fill="#eaeaea" font-size="13" opacity="0.6">◆ Heralds</text>
  <text x="20" y="295" fill="#eaeaea" font-size="13" opacity="0.6">▣ Ancients</text>
  <text x="20" y="325" fill="#eaeaea" font-size="13" opacity="0.6">※ DClone</text>
  <text x="20" y="355" fill="#eaeaea" font-size="13" opacity="0.6">△ XP</text>
  <text x="20" y="385" fill="#eaeaea" font-size="13" opacity="0.6">∿ Drops</text>
  <text x="20" y="415" fill="#eaeaea" font-size="13" opacity="0.6">⇌ Co-op</text>

  <!-- Separator -->
  <line x1="10" y1="440" x2="210" y2="440" stroke="#2a2a4a" stroke-width="1"/>

  <!-- Bottom Nav -->
  <text x="20" y="465" fill="#eaeaea" font-size="13" opacity="0.6">⚙ Settings</text>
  <text x="20" y="495" fill="#eaeaea" font-size="13" opacity="0.6">◳ Overlay</text>
  <text x="20" y="525" fill="#eaeaea" font-size="13" opacity="0.6">● Theme</text>
  <text x="20" y="555" fill="#eaeaea" font-size="13" opacity="0.6">↓ Export</text>
  <text x="20" y="585" fill="#eaeaea" font-size="13" opacity="0.6">↑ Import</text>

  <!-- Main content -->
  <text x="250" y="50" fill="#eaeaea" font-size="22" font-weight="bold">Profiles</text>
  <rect x="880" y="28" width="180" height="34" rx="4" fill="#e94560"/>
  <text x="920" y="50" fill="white" font-size="13">+ New Profile</text>

  <!-- Profile cards -->
  <rect x="250" y="80" width="270" height="120" rx="8" fill="#16213e" stroke="#2a2a4a"/>
  <text x="270" y="110" fill="#eaeaea" font-size="15" font-weight="bold">MFSorc</text>
  <rect x="420" y="93" width="80" height="24" rx="4" fill="#0f3460" stroke="#2a2a4a"/>
  <text x="432" y="110" fill="#eaeaea" font-size="11">Sorceress</text>
  <text x="270" y="138" fill="#a0a0a0" font-size="12">Ladder</text>
  <rect x="270" y="155" width="80" height="28" rx="4" fill="none" stroke="#4ecdc4"/>
  <text x="289" y="174" fill="#4ecdc4" font-size="11">Select</text>
  <rect x="360" y="155" width="65" height="28" rx="4" fill="none" stroke="#e94560"/>
  <text x="373" y="174" fill="#e94560" font-size="11">Delete</text>

  <rect x="540" y="80" width="270" height="120" rx="8" fill="#16213e" stroke="#2a2a4a"/>
  <text x="560" y="110" fill="#eaeaea" font-size="15" font-weight="bold">HammerPally</text>
  <rect x="700" y="93" width="65" height="24" rx="4" fill="#0f3460" stroke="#2a2a4a"/>
  <text x="715" y="110" fill="#eaeaea" font-size="11">Paladin</text>
  <text x="560" y="138" fill="#a0a0a0" font-size="12">Ladder</text>
  <rect x="560" y="155" width="80" height="28" rx="4" fill="none" stroke="#4ecdc4"/>
  <text x="579" y="174" fill="#4ecdc4" font-size="11">Select</text>
  <rect x="650" y="155" width="65" height="28" rx="4" fill="none" stroke="#e94560"/>
  <text x="663" y="174" fill="#e94560" font-size="11">Delete</text>

  <rect x="830" y="80" width="230" height="120" rx="8" fill="#16213e" stroke="#2a2a4a"/>
  <text x="850" y="110" fill="#eaeaea" font-size="15" font-weight="bold">DarkLord</text>
  <rect x="965" y="93" width="70" height="24" rx="4" fill="#0f3460" stroke="#2a2a4a"/>
  <text x="978" y="110" fill="#eaeaea" font-size="11">Warlock</text>
  <text x="850" y="138" fill="#a0a0a0" font-size="12">Single Player</text>
  <rect x="850" y="155" width="80" height="28" rx="4" fill="none" stroke="#4ecdc4"/>
  <text x="869" y="174" fill="#4ecdc4" font-size="11">Select</text>
  <rect x="940" y="155" width="65" height="28" rx="4" fill="none" stroke="#e94560"/>
  <text x="953" y="174" fill="#e94560" font-size="11">Delete</text>

  <!-- Form -->
  <rect x="250" y="230" width="810" height="180" rx="8" fill="#16213e" stroke="#2a2a4a"/>
  <text x="270" y="260" fill="#a0a0a0" font-size="11">Name</text>
  <rect x="270" y="268" width="300" height="32" rx="4" fill="#1a1a2e" stroke="#2a2a4a"/>
  <text x="280" y="289" fill="#666" font-size="12">Character name</text>

  <text x="590" y="260" fill="#a0a0a0" font-size="11">Class</text>
  <rect x="590" y="268" width="150" height="32" rx="4" fill="#1a1a2e" stroke="#2a2a4a"/>
  <text x="600" y="289" fill="#eaeaea" font-size="12">Sorceress</text>

  <text x="760" y="260" fill="#a0a0a0" font-size="11">Mode</text>
  <rect x="760" y="268" width="150" height="32" rx="4" fill="#1a1a2e" stroke="#2a2a4a"/>
  <text x="770" y="289" fill="#eaeaea" font-size="12">Ladder</text>

  <rect x="270" y="325" width="130" height="34" rx="4" fill="#e94560"/>
  <text x="287" y="347" fill="white" font-size="13">Create Profile</text>
</svg>
