<svg xmlns="http://www.w3.org/2000/svg" viewBox="0 0 1100 700" font-family="-apple-system, BlinkMacSystemFont, Segoe UI, Roboto, sans-serif">
  <!-- Background -->
  <rect width="1100" height="700" fill="#1a1a2e"/>

  <!-- Sidebar -->
  <rect x="0" y="0" width="220" height="700" fill="#0f3460"/>
  <text x="20" y="38" fill="#e94560" font-size="16" font-weight="bold">D2R Tracker</text>
  <line x1="0" y1="60" x2="220" y2="60" stroke="#2a2a4a" stroke-width="1"/>

  <!-- Nav Items -->
  <text x="20" y="85" fill="#eaeaea" font-size="13" opacity="0.6">◎ Profiles</text>
  <text x="20" y="115" fill="#eaeaea" font-size="13" opacity="0.6">▶ Run Tracker</text>
  <text x="20" y="145" fill="#eaeaea" font-size="13" opacity="0.6">↗ Routes</text>
  <text x="20" y="175" fill="#eaeaea" font-size="13" opacity="0.6">☰ History</text>
  <text x="20" y="205" fill="#eaeaea" font-size="13" opacity="0.6">◈ Statistics</text>
  <text x="20" y="235" fill="#eaeaea" font-size="13" opacity="0.6">⇄ Compare</text>
  <text x="20" y="265" fill="#eaeaea" font-size="13" opacity="0.6">◆ Heralds</text>
  <text x="20" y="295" fill="#eaeaea" font-size="13" opacity="0.6">▣ Ancients</text>
  <text x="20" y="325" fill="#eaeaea" font-size="13" opacity="0.6">※ DClone</text>
  <rect x="0" y="340" width="220" height="30" fill="rgba(233,69,96,0.2)"/>
  <rect x="0" y="340" width="3" height="30" fill="#e94560"/>
  <text x="20" y="355" fill="#eaeaea" font-size="13">△ XP</text>
  <text x="20" y="385" fill="#eaeaea" font-size="13" opacity="0.6">∿ Drops</text>
  <text x="20" y="415" fill="#eaeaea" font-size="13" opacity="0.6">⇌ Co-op</text>

  <!-- Separator -->
  <line x1="10" y1="440" x2="210" y2="440" stroke="#2a2a4a" stroke-width="1"/>

  <!-- Bottom Nav -->
  <text x="20" y="465" fill="#eaeaea" font-size="13" opacity="0.6">⚙ Settings</text>
  <text x="20" y="495" fill="#eaeaea" font-size="13" opacity="0.6">◳ Overlay</text>
  <text x="20" y="525" fill="#eaeaea" font-size="13" opacity="0.6">● Theme</text>
  <text x="20" y="555" fill="#eaeaea" font-size="13" opacity="0.6">↓ Export</text>
  <text x="20" y="585" fill="#eaeaea" font-size="13" opacity="0.6">↑ Import</text>

  <!-- Main content -->
  <text x="250" y="50" fill="#eaeaea" font-size="22" font-weight="bold">XP Tracker</text>
  <rect x="430" y="28" width="160" height="28" rx="4" fill="#0f3460" stroke="#2a2a4a"/>
  <text x="445" y="47" fill="#eaeaea" font-size="12">MFSorc - Sorceress</text>

  <!-- Stats Cards -->
  <rect x="250" y="75" width="190" height="70" rx="8" fill="#16213e" stroke="#2a2a4a"/>
  <text x="345" y="105" fill="#eaeaea" font-size="18" font-weight="bold" text-anchor="middle">142.5M</text>
  <text x="345" y="128" fill="#a0a0a0" font-size="11" text-anchor="middle">Total XP</text>

  <rect x="455" y="75" width="190" height="70" rx="8" fill="#16213e" stroke="#2a2a4a"/>
  <text x="550" y="105" fill="#eaeaea" font-size="18" font-weight="bold" text-anchor="middle">11.8M/hr</text>
  <text x="550" y="128" fill="#a0a0a0" font-size="11" text-anchor="middle">Avg XP/Hour</text>

  <rect x="660" y="75" width="190" height="70" rx="8" fill="#16213e" stroke="#2a2a4a"/>
  <text x="755" y="105" fill="#eaeaea" font-size="18" font-weight="bold" text-anchor="middle">12h 5m</text>
  <text x="755" y="128" fill="#a0a0a0" font-size="11" text-anchor="middle">Total Time</text>

  <rect x="865" y="75" width="190" height="70" rx="8" fill="#16213e" stroke="#2a2a4a"/>
  <text x="960" y="105" fill="#eaeaea" font-size="18" font-weight="bold" text-anchor="middle">18</text>
  <text x="960" y="128" fill="#a0a0a0" font-size="11" text-anchor="middle">Sessions</text>

  <!-- Level Info -->
  <rect x="250" y="160" width="815" height="70" rx="8" fill="#16213e" stroke="#2a2a4a"/>
  <text x="270" y="188" fill="#eaeaea" font-size="16" font-weight="bold">Level 94 → 95</text>
  <text x="270" y="212" fill="#a0a0a0" font-size="11">XP needed: 345.2M</text>
  <rect x="500" y="182" width="400" height="14" rx="7" fill="#1a1a2e"/>
  <rect x="500" y="182" width="165" height="14" rx="7" fill="#4ecdc4"/>
  <text x="915" y="194" fill="#eaeaea" font-size="11">41%</text>
  <text x="500" y="215" fill="#a0a0a0" font-size="11">Est. 12h remaining at 11.8M/hr</text>

  <!-- XP/Hour Trend Chart -->
  <rect x="250" y="245" width="815" height="200" rx="8" fill="#16213e" stroke="#2a2a4a"/>
  <text x="270" y="275" fill="#eaeaea" font-size="15" font-weight="bold">XP Rate Trend</text>
  <text x="275" y="305" fill="#a0a0a0" font-size="9">15M</text>
  <text x="275" y="340" fill="#a0a0a0" font-size="9">12M</text>
  <text x="275" y="375" fill="#a0a0a0" font-size="9">9M</text>
  <text x="275" y="410" fill="#a0a0a0" font-size="9">6M</text>
  <line x1="305" y1="300" x2="1040" y2="300" stroke="#2a2a4a" stroke-width="0.5" stroke-dasharray="3,3"/>
  <line x1="305" y1="335" x2="1040" y2="335" stroke="#2a2a4a" stroke-width="0.5" stroke-dasharray="3,3"/>
  <line x1="305" y1="370" x2="1040" y2="370" stroke="#2a2a4a" stroke-width="0.5" stroke-dasharray="3,3"/>
  <line x1="305" y1="405" x2="1040" y2="405" stroke="#2a2a4a" stroke-width="0.5" stroke-dasharray="3,3"/>
  <polyline points="320,380 380,365 440,370 500,345 560,335 620,340 680,320 740,310 800,315 860,305 920,300 980,295" fill="none" stroke="#4ecdc4" stroke-width="2.5" stroke-linecap="round" stroke-linejoin="round"/>
  <text x="650" y="440" fill="#a0a0a0" font-size="9">Session</text>

  <!-- Log XP Form -->
  <rect x="250" y="460" width="815" height="130" rx="8" fill="#16213e" stroke="#2a2a4a"/>
  <text x="270" y="490" fill="#eaeaea" font-size="15" font-weight="bold">Log XP Entry</text>

  <text x="270" y="518" fill="#a0a0a0" font-size="11">Level</text>
  <rect x="270" y="523" width="80" height="28" rx="4" fill="#1a1a2e" stroke="#2a2a4a"/>
  <text x="280" y="542" fill="#eaeaea" font-size="12">94</text>

  <text x="365" y="518" fill="#a0a0a0" font-size="11">XP Gained</text>
  <rect x="365" y="523" width="140" height="28" rx="4" fill="#1a1a2e" stroke="#2a2a4a"/>
  <text x="375" y="542" fill="#666" font-size="12">e.g., 5000000</text>

  <text x="520" y="518" fill="#a0a0a0" font-size="11">Duration (min)</text>
  <rect x="520" y="523" width="100" height="28" rx="4" fill="#1a1a2e" stroke="#2a2a4a"/>
  <text x="530" y="542" fill="#666" font-size="12">e.g., 60</text>

  <text x="635" y="518" fill="#a0a0a0" font-size="11">Area</text>
  <rect x="635" y="523" width="180" height="28" rx="4" fill="#1a1a2e" stroke="#2a2a4a"/>
  <text x="645" y="542" fill="#eaeaea" font-size="12">Chaos Sanctuary</text>

  <text x="830" y="518" fill="#a0a0a0" font-size="11">Notes</text>
  <rect x="830" y="523" width="210" height="28" rx="4" fill="#1a1a2e" stroke="#2a2a4a"/>
  <text x="840" y="542" fill="#666" font-size="12">Optional notes...</text>

  <rect x="270" y="560" width="110" height="28" rx="4" fill="#e94560"/>
  <text x="287" y="579" fill="white" font-size="12">Log Entry</text>

  <!-- XP History -->
  <rect x="250" y="600" width="815" height="90" rx="8" fill="#16213e" stroke="#2a2a4a"/>
  <text x="270" y="625" fill="#eaeaea" font-size="15" font-weight="bold">XP History</text>
  <text x="270" y="650" fill="#a0a0a0" font-size="10">Date</text>
  <text x="360" y="650" fill="#a0a0a0" font-size="10">Level</text>
  <text x="420" y="650" fill="#a0a0a0" font-size="10">XP Gained</text>
  <text x="520" y="650" fill="#a0a0a0" font-size="10">Duration</text>
  <text x="600" y="650" fill="#a0a0a0" font-size="10">XP/Hour</text>
  <text x="700" y="650" fill="#a0a0a0" font-size="10">Area</text>
  <text x="850" y="650" fill="#a0a0a0" font-size="10">Notes</text>
  <line x1="270" y1="656" x2="1040" y2="656" stroke="#2a2a4a" stroke-width="1"/>
  <text x="270" y="675" fill="#eaeaea" font-size="10">12/15/2024</text>
  <text x="360" y="675" fill="#eaeaea" font-size="10">Lv.94</text>
  <text x="420" y="675" fill="#eaeaea" font-size="10">14.2M</text>
  <text x="520" y="675" fill="#eaeaea" font-size="10">1h 12m</text>
  <text x="600" y="675" fill="#4ecdc4" font-size="10">11.8M/hr</text>
  <text x="700" y="675" fill="#eaeaea" font-size="10">Chaos Sanctuary</text>
  <text x="850" y="675" fill="#a0a0a0" font-size="10">Smooth runs</text>
</svg>
